<svg xmlns="http://www.w3.org/2000/svg" width="805.403626" height="690.000000">
<rect x="0" y="0" width="805.403626" height="690.000000" fill="black"/>
<polygon points="51.961524,45.000000 25.980762,60.000000 0.000000,45.000000 0.000000,15.000000 25.980762,0.000000 51.961524,15.000000 " stroke="black" fill="blue"/>
<polygon points="103.923048,45.000000 77.942286,60.000000 51.961524,45.000000 51.961524,15.000000 77.942286,0.000000 103.923048,15.000000 " stroke="black" fill="blue"/>
<polygon points="155.884573,45.000000 129.903811,60.000000 103.923048,45.000000 103.923048,15.000000 129.903811,0.000000 155.884573,15.000000 " stroke="black" fill="blue"/>
<polygon points="207.846097,45.000000 181.865335,60.000000 155.884573,45.000000 155.884573,15.000000 181.865335,0.000000 207.846097,15.000000 " stroke="black" fill="blue"/>
<polygon points="259.807621,45.000000 233.826859,60.000000 207.846097,45.000000 207.846097,15.000000 233.826859,0.000000 259.807621,15.000000 " stroke="black" fill="blue"/>
<polygon points="311.769145,45.000000 285.788383,60.000000 259.807621,45.000000 259.807621,15.000000 285.788383,0.000000 311.769145,15.000000 " stroke="black" fill="blue"/>
<polygon points="363.730670,45.000000 337.749907,60.000000 311.769145,45.000000 311.769145,15.000000 337.749907,0.000000 363.730670,15.000000 " stroke="black" fill="blue"/>
<polygon points="415.692194,45.000000 389.711432,60.000000 363.730670,45.000000 363.730670,15.000000 389.711432,0.000000 415.692194,15.000000 " stroke="black" fill="blue"/>
<polygon points="467.653718,45.000000 441.672956,60.000000 415.692194,45.000000 415.692194,15.000000 441.672956,0.000000 467.653718,15.000000 " stroke="black" fill="blue"/>
<polygon points="519.615242,45.000000 493.634480,60.000000 467.653718,45.000000 467.653718,15.000000 493.634480,0.000000 519.615242,15.000000 " stroke="black" fill="blue"/>
<polygon points="571.576766,45.000000 545.596004,60.000000 519.615242,45.000000 519.615242,15.000000 545.596004,0.000000 571.576766,15.000000 " stroke="black" fill="blue"/>
<polygon points="623.538291,45.000000 597.557529,60.000000 571.576766,45.000000 571.576766,15.000000 597.557529,0.000000 623.538291,15.000000 " stroke="black" fill="blue"/>
<polygon points="675.499815,45.000000 649.519053,60.000000 623.538291,45.000000 623.538291,15.000000 649.519053,0.000000 675.499815,15.000000 " stroke="black" fill="blue"/>
<polygon points="727.461339,45.000000 701.480577,60.000000 675.499815,45.000000 675.499815,15.000000 701.480577,0.000000 727.461339,15.000000 " stroke="black" fill="blue"/>
<polygon points="779.422863,45.000000 753.442101,60.000000 727.461339,45.000000 727.461339,15.000000 753.442101,0.000000 779.422863,15.000000 " stroke="black" fill="blue"/>
<polygon points="77.942286,90.000000 51.961524,105.000000 25.980762,90.000000 25.980762,60.000000 51.961524,45.000000 77.942286,60.000000 " stroke="black" fill="blue"/>
<polygon points="129.903811,90.000000 103.923048,105.000000 77.942286,90.000000 77.942286,60.000000 103.923048,45.000000 129.903811,60.000000 " stroke="black" fill="white"/>
<polygon points="181.865335,90.000000 155.884573,105.000000 129.903811,90.000000 129.903811,60.000000 155.884573,45.000000 181.865335,60.000000 " stroke="black" fill="white"/>
<polygon points="233.826859,90.000000 207.846097,105.000000 181.865335,90.000000 181.865335,60.000000 207.846097,45.000000 233.826859,60.000000 " stroke="black" fill="blue"/>
<polygon points="285.788383,90.000000 259.807621,105.000000 233.826859,90.000000 233.826859,60.000000 259.807621,45.000000 285.788383,60.000000 " stroke="black" fill="blue"/>
<polygon points="337.749907,90.000000 311.769145,105.000000 285.788383,90.000000 285.788383,60.000000 311.769145,45.000000 337.749907,60.000000 " stroke="black" fill="white"/>
<polygon points="389.711432,90.000000 363.730670,105.000000 337.749907,90.000000 337.749907,60.000000 363.730670,45.000000 389.711432,60.000000 " stroke="black" fill="white"/>
<polygon points="441.672956,90.000000 415.692194,105.000000 389.711432,90.000000 389.711432,60.000000 415.692194,45.000000 441.672956,60.000000 " stroke="black" fill="blue"/>
<polygon points="493.634480,90.000000 467.653718,105.000000 441.672956,90.000000 441.672956,60.000000 467.653718,45.000000 493.634480,60.000000 " stroke="black" fill="white"/>
<polygon points="545.596004,90.000000 519.615242,105.000000 493.634480,90.000000 493.634480,60.000000 519.615242,45.000000 545.596004,60.000000 " stroke="black" fill="white"/>
<polygon points="597.557529,90.000000 571.576766,105.000000 545.596004,90.000000 545.596004,60.000000 571.576766,45.000000 597.557529,60.000000 " stroke="black" fill="blue"/>
<polygon points="649.519053,90.000000 623.538291,105.000000 597.557529,90.000000 597.557529,60.000000 623.538291,45.000000 649.519053,60.000000 " stroke="black" fill="blue"/>
<polygon points="701.480577,90.000000 675.499815,105.000000 649.519053,90.000000 649.519053,60.000000 675.499815,45.000000 701.480577,60.000000 " stroke="black" fill="blue"/>
<polygon points="753.442101,90.000000 727.461339,105.000000 701.480577,90.000000 701.480577,60.000000 727.461339,45.000000 753.442101,60.000000 " stroke="black" fill="white"/>
<polygon points="805.403626,90.000000 779.422863,105.000000 753.442101,90.000000 753.442101,60.000000 779.422863,45.000000 805.403626,60.000000 " stroke="black" fill="blue"/>
<polygon points="51.961524,135.000000 25.980762,150.000000 0.000000,135.000000 0.000000,105.000000 25.980762,90.000000 51.961524,105.000000 " stroke="black" fill="blue"/>
<polygon points="103.923048,135.000000 77.942286,150.000000 51.961524,135.000000 51.961524,105.000000 77.942286,90.000000 103.923048,105.000000 " stroke="black" fill="white"/>
<polygon points="155.884573,135.000000 129.903811,150.000000 103.923048,135.000000 103.923048,105.000000 129.903811,90.000000 155.884573,105.000000 " stroke="black" fill="blue"/>
<polygon points="207.846097,135.000000 181.865335,150.000000 155.884573,135.000000 155.884573,105.000000 181.865335,90.000000 207.846097,105.000000 " stroke="black" fill="white"/>
<polygon points="259.807621,135.000000 233.826859,150.000000 207.846097,135.000000 207.846097,105.000000 233.826859,90.000000 259.807621,105.000000 " stroke="black" fill="blue"/>
<polygon points="311.769145,135.000000 285.788383,150.000000 259.807621,135.000000 259.807621,105.000000 285.788383,90.000000 311.769145,105.000000 " stroke="black" fill="white"/>
<polygon points="363.730670,135.000000 337.749907,150.000000 311.769145,135.000000 311.769145,105.000000 337.749907,90.000000 363.730670,105.000000 " stroke="black" fill="blue"/>
<polygon points="415.692194,135.000000 389.711432,150.000000 363.730670,135.000000 363.730670,105.000000 389.711432,90.000000 415.692194,105.000000 " stroke="black" fill="white"/>
<polygon points="467.653718,135.000000 441.672956,150.000000 415.692194,135.000000 415.692194,105.000000 441.672956,90.000000 467.653718,105.000000 " stroke="black" fill="blue"/>
<polygon points="519.615242,135.000000 493.634480,150.000000 467.653718,135.000000 467.653718,105.000000 493.634480,90.000000 519.615242,105.000000 " stroke="black" fill="blue"/>
<polygon points="571.576766,135.000000 545.596004,150.000000 519.615242,135.000000 519.615242,105.000000 545.596004,90.000000 571.576766,105.000000 " stroke="black" fill="white"/>
<polygon points="623.538291,135.000000 597.557529,150.000000 571.576766,135.000000 571.576766,105.000000 597.557529,90.000000 623.538291,105.000000 " stroke="black" fill="blue"/>
<polygon points="675.499815,135.000000 649.519053,150.000000 623.538291,135.000000 623.538291,105.000000 649.519053,90.000000 675.499815,105.000000 " stroke="black" fill="blue"/>
<polygon points="727.461339,135.000000 701.480577,150.000000 675.499815,135.000000 675.499815,105.000000 701.480577,90.000000 727.461339,105.000000 " stroke="black" fill="white"/>
<polygon points="779.422863,135.000000 753.442101,150.000000 727.461339,135.000000 727.461339,105.000000 753.442101,90.000000 779.422863,105.000000 " stroke="black" fill="blue"/>
<polygon points="77.942286,180.000000 51.961524,195.000000 25.980762,180.000000 25.980762,150.000000 51.961524,135.000000 77.942286,150.000000 " stroke="black" fill="blue"/>
<polygon points="129.903811,180.000000 103.923048,195.000000 77.942286,180.000000 77.942286,150.000000 103.923048,135.000000 129.903811,150.000000 " stroke="black" fill="blue"/>
<polygon points="181.865335,180.000000 155.884573,195.000000 129.903811,180.000000 129.903811,150.000000 155.884573,135.000000 181.865335,150.000000 " stroke="black" fill="white"/>
<polygon points="233.826859,180.000000 207.846097,195.000000 181.865335,180.000000 181.865335,150.000000 207.846097,135.000000 233.826859,150.000000 " stroke="black" fill="blue"/>
<polygon points="285.788383,180.000000 259.807621,195.000000 233.826859,180.000000 233.826859,150.000000 259.807621,135.000000 285.788383,150.000000 " stroke="black" fill="blue"/>
<polygon points="337.749907,180.000000 311.769145,195.000000 285.788383,180.000000 285.788383,150.000000 311.769145,135.000000 337.749907,150.000000 " stroke="black" fill="white"/>
<polygon points="389.711432,180.000000 363.730670,195.000000 337.749907,180.000000 337.749907,150.000000 363.730670,135.000000 389.711432,150.000000 " stroke="black" fill="blue"/>
<polygon points="441.672956,180.000000 415.692194,195.000000 389.711432,180.000000 389.711432,150.000000 415.692194,135.000000 441.672956,150.000000 " stroke="black" fill="white"/>
<polygon points="493.634480,180.000000 467.653718,195.000000 441.672956,180.000000 441.672956,150.000000 467.653718,135.000000 493.634480,150.000000 " stroke="black" fill="blue"/>
<polygon points="545.596004,180.000000 519.615242,195.000000 493.634480,180.000000 493.634480,150.000000 519.615242,135.000000 545.596004,150.000000 " stroke="black" fill="blue"/>
<polygon points="597.557529,180.000000 571.576766,195.000000 545.596004,180.000000 545.596004,150.000000 571.576766,135.000000 597.557529,150.000000 " stroke="black" fill="white"/>
<polygon points="649.519053,180.000000 623.538291,195.000000 597.557529,180.000000 597.557529,150.000000 623.538291,135.000000 649.519053,150.000000 " stroke="black" fill="blue"/>
<polygon points="701.480577,180.000000 675.499815,195.000000 649.519053,180.000000 649.519053,150.000000 675.499815,135.000000 701.480577,150.000000 " stroke="black" fill="white"/>
<polygon points="753.442101,180.000000 727.461339,195.000000 701.480577,180.000000 701.480577,150.000000 727.461339,135.000000 753.442101,150.000000 " stroke="black" fill="blue"/>
<polygon points="805.403626,180.000000 779.422863,195.000000 753.442101,180.000000 753.442101,150.000000 779.422863,135.000000 805.403626,150.000000 " stroke="black" fill="blue"/>
<polygon points="51.961524,225.000000 25.980762,240.000000 0.000000,225.000000 0.000000,195.000000 25.980762,180.000000 51.961524,195.000000 " stroke="black" fill="blue"/>
<polygon points="103.923048,225.000000 77.942286,240.000000 51.961524,225.000000 51.961524,195.000000 77.942286,180.000000 103.923048,195.000000 " stroke="black" fill="white"/>
<polygon points="155.884573,225.000000 129.903811,240.000000 103.923048,225.000000 103.923048,195.000000 129.903811,180.000000 155.884573,195.000000 " stroke="black" fill="blue"/>
<polygon points="207.846097,225.000000 181.865335,240.000000 155.884573,225.000000 155.884573,195.000000 181.865335,180.000000 207.846097,195.000000 " stroke="black" fill="white"/>
<polygon points="259.807621,225.000000 233.826859,240.000000 207.846097,225.000000 207.846097,195.000000 233.826859,180.000000 259.807621,195.000000 " stroke="black" fill="blue"/>
<polygon points="311.769145,225.000000 285.788383,240.000000 259.807621,225.000000 259.807621,195.000000 285.788383,180.000000 311.769145,195.000000 " stroke="black" fill="white"/>
<polygon points="363.730670,225.000000 337.749907,240.000000 311.769145,225.000000 311.769145,195.000000 337.749907,180.000000 363.730670,195.000000 " stroke="black" fill="blue"/>
<polygon points="415.692194,225.000000 389.711432,240.000000 363.730670,225.000000 363.730670,195.000000 389.711432,180.000000 415.692194,195.000000 " stroke="black" fill="blue"/>
<polygon points="467.653718,225.000000 441.672956,240.000000 415.692194,225.000000 415.692194,195.000000 441.672956,180.000000 467.653718,195.000000 " stroke="black" fill="white"/>
<polygon points="519.615242,225.000000 493.634480,240.000000 467.653718,225.000000 467.653718,195.000000 493.634480,180.000000 519.615242,195.000000 " stroke="black" fill="white"/>
<polygon points="571.576766,225.000000 545.596004,240.000000 519.615242,225.000000 519.615242,195.000000 545.596004,180.000000 571.576766,195.000000 " stroke="black" fill="blue"/>
<polygon points="623.538291,225.000000 597.557529,240.000000 571.576766,225.000000 571.576766,195.000000 597.557529,180.000000 623.538291,195.000000 " stroke="black" fill="white"/>
<polygon points="675.499815,225.000000 649.519053,240.000000 623.538291,225.000000 623.538291,195.000000 649.519053,180.000000 675.499815,195.000000 " stroke="black" fill="white"/>
<polygon points="727.461339,225.000000 701.480577,240.000000 675.499815,225.000000 675.499815,195.000000 701.480577,180.000000 727.461339,195.000000 " stroke="black" fill="blue"/>
<polygon points="779.422863,225.000000 753.442101,240.000000 727.461339,225.000000 727.461339,195.000000 753.442101,180.000000 779.422863,195.000000 " stroke="black" fill="blue"/>
<polygon points="77.942286,270.000000 51.961524,285.000000 25.980762,270.000000 25.980762,240.000000 51.961524,225.000000 77.942286,240.000000 " stroke="black" fill="blue"/>
<polygon points="129.903811,270.000000 103.923048,285.000000 77.942286,270.000000 77.942286,240.000000 103.923048,225.000000 129.903811,240.000000 " stroke="black" fill="white"/>
<polygon points="181.865335,270.000000 155.884573,285.000000 129.903811,270.000000 129.903811,240.000000 155.884573,225.000000 181.865335,240.000000 " stroke="black" fill="blue"/>
<polygon points="233.826859,270.000000 207.846097,285.000000 181.865335,270.000000 181.865335,240.000000 207.846097,225.000000 233.826859,240.000000 " stroke="black" fill="white"/>
<polygon points="285.788383,270.000000 259.807621,285.000000 233.826859,270.000000 233.826859,240.000000 259.807621,225.000000 285.788383,240.000000 " stroke="black" fill="blue"/>
<polygon points="337.749907,270.000000 311.769145,285.000000 285.788383,270.000000 285.788383,240.000000 311.769145,225.000000 337.749907,240.000000 " stroke="black" fill="white"/>
<polygon points="389.711432,270.000000 363.730670,285.000000 337.749907,270.000000 337.749907,240.000000 363.730670,225.000000 389.711432,240.000000 " stroke="black" fill="blue"/>
<polygon points="441.672956,270.000000 415.692194,285.000000 389.711432,270.000000 389.711432,240.000000 415.692194,225.000000 441.672956,240.000000 " stroke="black" fill="white"/>
<polygon points="493.634480,270.000000 467.653718,285.000000 441.672956,270.000000 441.672956,240.000000 467.653718,225.000000 493.634480,240.000000 " stroke="black" fill="blue"/>
<polygon points="545.596004,270.000000 519.615242,285.000000 493.634480,270.000000 493.634480,240.000000 519.615242,225.000000 545.596004,240.000000 " stroke="black" fill="blue"/>
<polygon points="597.557529,270.000000 571.576766,285.000000 545.596004,270.000000 545.596004,240.000000 571.576766,225.000000 597.557529,240.000000 " stroke="black" fill="blue"/>
<polygon points="649.519053,270.000000 623.538291,285.000000 597.557529,270.000000 597.557529,240.000000 623.538291,225.000000 649.519053,240.000000 " stroke="black" fill="blue"/>
<polygon points="701.480577,270.000000 675.499815,285.000000 649.519053,270.000000 649.519053,240.000000 675.499815,225.000000 701.480577,240.000000 " stroke="black" fill="white"/>
<polygon points="753.442101,270.000000 727.461339,285.000000 701.480577,270.000000 701.480577,240.000000 727.461339,225.000000 753.442101,240.000000 " stroke="black" fill="white"/>
<polygon points="805.403626,270.000000 779.422863,285.000000 753.442101,270.000000 753.442101,240.000000 779.422863,225.000000 805.403626,240.000000 " stroke="black" fill="blue"/>
<polygon points="51.961524,315.000000 25.980762,330.000000 0.000000,315.000000 0.000000,285.000000 25.980762,270.000000 51.961524,285.000000 " stroke="black" fill="blue"/>
<polygon points="103.923048,315.000000 77.942286,330.000000 51.961524,315.000000 51.961524,285.000000 77.942286,270.000000 103.923048,285.000000 " stroke="black" fill="blue"/>
<polygon points="155.884573,315.000000 129.903811,330.000000 103.923048,315.000000 103.923048,285.000000 129.903811,270.000000 155.884573,285.000000 " stroke="black" fill="white"/>
<polygon points="207.846097,315.000000 181.865335,330.000000 155.884573,315.000000 155.884573,285.000000 181.865335,270.000000 207.846097,285.000000 " stroke="black" fill="white"/>
<polygon points="259.807621,315.000000 233.826859,330.000000 207.846097,315.000000 207.846097,285.000000 233.826859,270.000000 259.807621,285.000000 " stroke="black" fill="blue"/>
<polygon points="311.769145,315.000000 285.788383,330.000000 259.807621,315.000000 259.807621,285.000000 285.788383,270.000000 311.769145,285.000000 " stroke="black" fill="white"/>
<polygon points="363.730670,315.000000 337.749907,330.000000 311.769145,315.000000 311.769145,285.000000 337.749907,270.000000 363.730670,285.000000 " stroke="black" fill="blue"/>
<polygon points="415.692194,315.000000 389.711432,330.000000 363.730670,315.000000 363.730670,285.000000 389.711432,270.000000 415.692194,285.000000 " stroke="black" fill="blue"/>
<polygon points="467.653718,315.000000 441.672956,330.000000 415.692194,315.000000 415.692194,285.000000 441.672956,270.000000 467.653718,285.000000 " stroke="black" fill="white"/>
<polygon points="519.615242,315.000000 493.634480,330.000000 467.653718,315.000000 467.653718,285.000000 493.634480,270.000000 519.615242,285.000000 " stroke="black" fill="white"/>
<polygon points="571.576766,315.000000 545.596004,330.000000 519.615242,315.000000 519.615242,285.000000 545.596004,270.000000 571.576766,285.000000 " stroke="black" fill="white"/>
<polygon points="623.538291,315.000000 597.557529,330.000000 571.576766,315.000000 571.576766,285.000000 597.557529,270.000000 623.538291,285.000000 " stroke="black" fill="white"/>
<polygon points="675.499815,315.000000 649.519053,330.000000 623.538291,315.000000 623.538291,285.000000 649.519053,270.000000 675.499815,285.000000 " stroke="black" fill="white"/>
<polygon points="727.461339,315.000000 701.480577,330.000000 675.499815,315.000000 675.499815,285.000000 701.480577,270.000000 727.461339,285.000000 " stroke="black" fill="blue"/>
<polygon points="779.422863,315.000000 753.442101,330.000000 727.461339,315.000000 727.461339,285.000000 753.442101,270.000000 779.422863,285.000000 " stroke="black" fill="blue"/>
<polygon points="77.942286,360.000000 51.961524,375.000000 25.980762,360.000000 25.980762,330.000000 51.961524,315.000000 77.942286,330.000000 " stroke="black" fill="blue"/>
<polygon points="129.903811,360.000000 103.923048,375.000000 77.942286,360.000000 77.942286,330.000000 103.923048,315.000000 129.903811,330.000000 " stroke="black" fill="white"/>
<polygon points="181.865335,360.000000 155.884573,375.000000 129.903811,360.000000 129.903811,330.000000 155.884573,315.000000 181.865335,330.000000 " stroke="black" fill="blue"/>
<polygon points="233.826859,360.000000 207.846097,375.000000 181.865335,360.000000 181.865335,330.000000 207.846097,315.000000 233.826859,330.000000 " stroke="black" fill="blue"/>
<polygon points="285.788383,360.000000 259.807621,375.000000 233.826859,360.000000 233.826859,330.000000 259.807621,315.000000 285.788383,330.000000 " stroke="black" fill="white"/>
<polygon points="337.749907,360.000000 311.769145,375.000000 285.788383,360.000000 285.788383,330.000000 311.769145,315.000000 337.749907,330.000000 " stroke="black" fill="blue"/>
<polygon points="389.711432,360.000000 363.730670,375.000000 337.749907,360.000000 337.749907,330.000000 363.730670,315.000000 389.711432,330.000000 " stroke="black" fill="blue"/>
<polygon points="441.672956,360.000000 415.692194,375.000000 389.711432,360.000000 389.711432,330.000000 415.692194,315.000000 441.672956,330.000000 " stroke="black" fill="blue"/>
<polygon points="493.634480,360.000000 467.653718,375.000000 441.672956,360.000000 441.672956,330.000000 467.653718,315.000000 493.634480,330.000000 " stroke="black" fill="blue"/>
<polygon points="545.596004,360.000000 519.615242,375.000000 493.634480,360.000000 493.634480,330.000000 519.615242,315.000000 545.596004,330.000000 " stroke="black" fill="blue"/>
<polygon points="597.557529,360.000000 571.576766,375.000000 545.596004,360.000000 545.596004,330.000000 571.576766,315.000000 597.557529,330.000000 " stroke="black" fill="blue"/>
<polygon points="649.519053,360.000000 623.538291,375.000000 597.557529,360.000000 597.557529,330.000000 623.538291,315.000000 649.519053,330.000000 " stroke="black" fill="blue"/>
<polygon points="701.480577,360.000000 675.499815,375.000000 649.519053,360.000000 649.519053,330.000000 675.499815,315.000000 701.480577,330.000000 " stroke="black" fill="white"/>
<polygon points="753.442101,360.000000 727.461339,375.000000 701.480577,360.000000 701.480577,330.000000 727.461339,315.000000 753.442101,330.000000 " stroke="black" fill="white"/>
<polygon points="805.403626,360.000000 779.422863,375.000000 753.442101,360.000000 753.442101,330.000000 779.422863,315.000000 805.403626,330.000000 " stroke="black" fill="blue"/>
<polygon points="51.961524,405.000000 25.980762,420.000000 0.000000,405.000000 0.000000,375.000000 25.980762,360.000000 51.961524,375.000000 " stroke="black" fill="blue"/>
<polygon points="103.923048,405.000000 77.942286,420.000000 51.961524,405.000000 51.961524,375.000000 77.942286,360.000000 103.923048,375.000000 " stroke="black" fill="white"/>
<polygon points="155.884573,405.000000 129.903811,420.000000 103.923048,405.000000 103.923048,375.000000 129.903811,360.000000 155.884573,375.000000 " stroke="black" fill="blue"/>
<polygon points="207.846097,405.000000 181.865335,420.000000 155.884573,405.000000 155.884573,375.000000 181.865335,360.000000 207.846097,375.000000 " stroke="black" fill="white"/>
<polygon points="259.807621,405.000000 233.826859,420.000000 207.846097,405.000000 207.846097,375.000000 233.826859,360.000000 259.807621,375.000000 " stroke="black" fill="white"/>
<polygon points="311.769145,405.000000 285.788383,420.000000 259.807621,405.000000 259.807621,375.000000 285.788383,360.000000 311.769145,375.000000 " stroke="black" fill="blue"/>
<polygon points="363.730670,405.000000 337.749907,420.000000 311.769145,405.000000 311.769145,375.000000 337.749907,360.000000 363.730670,375.000000 " stroke="black" fill="white"/>
<polygon points="415.692194,405.000000 389.711432,420.000000 363.730670,405.000000 363.730670,375.000000 389.711432,360.000000 415.692194,375.000000 " stroke="black" fill="white"/>
<polygon points="467.653718,405.000000 441.672956,420.000000 415.692194,405.000000 415.692194,375.000000 441.672956,360.000000 467.653718,375.000000 " stroke="black" fill="blue"/>
<polygon points="519.615242,405.000000 493.634480,420.000000 467.653718,405.000000 467.653718,375.000000 493.634480,360.000000 519.615242,375.000000 " stroke="black" fill="white"/>
<polygon points="571.576766,405.000000 545.596004,420.000000 519.615242,405.000000 519.615242,375.000000 545.596004,360.000000 571.576766,375.000000 " stroke="black" fill="blue"/>
<polygon points="623.538291,405.000000 597.557529,420.000000 571.576766,405.000000 571.576766,375.000000 597.557529,360.000000 623.538291,375.000000 " stroke="black" fill="white"/>
<polygon points="675.499815,405.000000 649.519053,420.000000 623.538291,405.000000 623.538291,375.000000 649.519053,360.000000 675.499815,375.000000 " stroke="black" fill="white"/>
<polygon points="727.461339,405.000000 701.480577,420.000000 675.499815,405.000000 675.499815,375.000000 701.480577,360.000000 727.461339,375.000000 " stroke="black" fill="blue"/>
<polygon points="779.422863,405.000000 753.442101,420.000000 727.461339,405.000000 727.461339,375.000000 753.442101,360.000000 779.422863,375.000000 " stroke="black" fill="blue"/>
<polygon points="77.942286,450.000000 51.961524,465.000000 25.980762,450.000000 25.980762,420.000000 51.961524,405.000000 77.942286,420.000000 " stroke="black" fill="blue"/>
<polygon points="129.903811,450.000000 103.923048,465.000000 77.942286,450.000000 77.942286,420.000000 103.923048,405.000000 129.903811,420.000000 " stroke="black" fill="white"/>
<polygon points="181.865335,450.000000 155.884573,465.000000 129.903811,450.000000 129.903811,420.000000 155.884573,405.000000 181.865335,420.000000 " stroke="black" fill="white"/>
<polygon points="233.826859,450.000000 207.846097,465.000000 181.865335,450.000000 181.865335,420.000000 207.846097,405.000000 233.826859,420.000000 " stroke="black" fill="blue"/>
<polygon points="285.788383,450.000000 259.807621,465.000000 233.826859,450.000000 233.826859,420.000000 259.807621,405.000000 285.788383,420.000000 " stroke="black" fill="blue"/>
<polygon points="337.749907,450.000000 311.769145,465.000000 285.788383,450.000000 285.788383,420.000000 311.769145,405.000000 337.749907,420.000000 " stroke="black" fill="white"/>
<polygon points="389.711432,450.000000 363.730670,465.000000 337.749907,450.000000 337.749907,420.000000 363.730670,405.000000 389.711432,420.000000 " stroke="black" fill="blue"/>
<polygon points="441.672956,450.000000 415.692194,465.000000 389.711432,450.000000 389.711432,420.000000 415.692194,405.000000 441.672956,420.000000 " stroke="black" fill="white"/>
<polygon points="493.634480,450.000000 467.653718,465.000000 441.672956,450.000000 441.672956,420.000000 467.653718,405.000000 493.634480,420.000000 " stroke="black" fill="white"/>
<polygon points="545.596004,450.000000 519.615242,465.000000 493.634480,450.000000 493.634480,420.000000 519.615242,405.000000 545.596004,420.000000 " stroke="black" fill="blue"/>
<polygon points="597.557529,450.000000 571.576766,465.000000 545.596004,450.000000 545.596004,420.000000 571.576766,405.000000 597.557529,420.000000 " stroke="black" fill="white"/>
<polygon points="649.519053,450.000000 623.538291,465.000000 597.557529,450.000000 597.557529,420.000000 623.538291,405.000000 649.519053,420.000000 " stroke="black" fill="blue"/>
<polygon points="701.480577,450.000000 675.499815,465.000000 649.519053,450.000000 649.519053,420.000000 675.499815,405.000000 701.480577,420.000000 " stroke="black" fill="blue"/>
<polygon points="753.442101,450.000000 727.461339,465.000000 701.480577,450.000000 701.480577,420.000000 727.461339,405.000000 753.442101,420.000000 " stroke="black" fill="blue"/>
<polygon points="805.403626,450.000000 779.422863,465.000000 753.442101,450.000000 753.442101,420.000000 779.422863,405.000000 805.403626,420.000000 " stroke="black" fill="blue"/>
<polygon points="51.961524,495.000000 25.980762,510.000000 0.000000,495.000000 0.000000,465.000000 25.980762,450.000000 51.961524,465.000000 " stroke="black" fill="blue"/>
<polygon points="103.923048,495.000000 77.942286,510.000000 51.961524,495.000000 51.961524,465.000000 77.942286,450.000000 103.923048,465.000000 " stroke="black" fill="blue"/>
<polygon points="155.884573,495.000000 129.903811,510.000000 103.923048,495.000000 103.923048,465.000000 129.903811,450.000000 155.884573,465.000000 " stroke="black" fill="blue"/>
<polygon points="207.846097,495.000000 181.865335,510.000000 155.884573,495.000000 155.884573,465.000000 181.865335,450.000000 207.846097,465.000000 " stroke="black" fill="blue"/>
<polygon points="259.807621,495.000000 233.826859,510.000000 207.846097,495.000000 207.846097,465.000000 233.826859,450.000000 259.807621,465.000000 " stroke="black" fill="white"/>
<polygon points="311.769145,495.000000 285.788383,510.000000 259.807621,495.000000 259.807621,465.000000 285.788383,450.000000 311.769145,465.000000 " stroke="black" fill="white"/>
<polygon points="363.730670,495.000000 337.749907,510.000000 311.769145,495.000000 311.769145,465.000000 337.749907,450.000000 363.730670,465.000000 " stroke="black" fill="blue"/>
<polygon points="415.692194,495.000000 389.711432,510.000000 363.730670,495.000000 363.730670,465.000000 389.711432,450.000000 415.692194,465.000000 " stroke="black" fill="white"/>
<polygon points="467.653718,495.000000 441.672956,510.000000 415.692194,495.000000 415.692194,465.000000 441.672956,450.000000 467.653718,465.000000 " stroke="black" fill="blue"/>
<polygon points="519.615242,495.000000 493.634480,510.000000 467.653718,495.000000 467.653718,465.000000 493.634480,450.000000 519.615242,465.000000 " stroke="black" fill="blue"/>
<polygon points="571.576766,495.000000 545.596004,510.000000 519.615242,495.000000 519.615242,465.000000 545.596004,450.000000 571.576766,465.000000 " stroke="black" fill="white"/>
<polygon points="623.538291,495.000000 597.557529,510.000000 571.576766,495.000000 571.576766,465.000000 597.557529,450.000000 623.538291,465.000000 " stroke="black" fill="blue"/>
<polygon points="675.499815,495.000000 649.519053,510.000000 623.538291,495.000000 623.538291,465.000000 649.519053,450.000000 675.499815,465.000000 " stroke="black" fill="white"/>
<polygon points="727.461339,495.000000 701.480577,510.000000 675.499815,495.000000 675.499815,465.000000 701.480577,450.000000 727.461339,465.000000 " stroke="black" fill="blue"/>
<polygon points="779.422863,495.000000 753.442101,510.000000 727.461339,495.000000 727.461339,465.000000 753.442101,450.000000 779.422863,465.000000 " stroke="black" fill="blue"/>
<polygon points="77.942286,540.000000 51.961524,555.000000 25.980762,540.000000 25.980762,510.000000 51.961524,495.000000 77.942286,510.000000 " stroke="black" fill="blue"/>
<polygon points="129.903811,540.000000 103.923048,555.000000 77.942286,540.000000 77.942286,510.000000 103.923048,495.000000 129.903811,510.000000 " stroke="black" fill="white"/>
<polygon points="181.865335,540.000000 155.884573,555.000000 129.903811,540.000000 129.903811,510.000000 155.884573,495.000000 181.865335,510.000000 " stroke="black" fill="white"/>
<polygon points="233.826859,540.000000 207.846097,555.000000 181.865335,540.000000 181.865335,510.000000 207.846097,495.000000 233.826859,510.000000 " stroke="black" fill="blue"/>
<polygon points="285.788383,540.000000 259.807621,555.000000 233.826859,540.000000 233.826859,510.000000 259.807621,495.000000 285.788383,510.000000 " stroke="black" fill="blue"/>
<polygon points="337.749907,540.000000 311.769145,555.000000 285.788383,540.000000 285.788383,510.000000 311.769145,495.000000 337.749907,510.000000 " stroke="black" fill="blue"/>
<polygon points="389.711432,540.000000 363.730670,555.000000 337.749907,540.000000 337.749907,510.000000 363.730670,495.000000 389.711432,510.000000 " stroke="black" fill="white"/>
<polygon points="441.672956,540.000000 415.692194,555.000000 389.711432,540.000000 389.711432,510.000000 415.692194,495.000000 441.672956,510.000000 " stroke="black" fill="blue"/>
<polygon points="493.634480,540.000000 467.653718,555.000000 441.672956,540.000000 441.672956,510.000000 467.653718,495.000000 493.634480,510.000000 " stroke="black" fill="white"/>
<polygon points="545.596004,540.000000 519.615242,555.000000 493.634480,540.000000 493.634480,510.000000 519.615242,495.000000 545.596004,510.000000 " stroke="black" fill="white"/>
<polygon points="597.557529,540.000000 571.576766,555.000000 545.596004,540.000000 545.596004,510.000000 571.576766,495.000000 597.557529,510.000000 " stroke="black" fill="blue"/>
<polygon points="649.519053,540.000000 623.538291,555.000000 597.557529,540.000000 597.557529,510.000000 623.538291,495.000000 649.519053,510.000000 " stroke="black" fill="blue"/>
<polygon points="701.480577,540.000000 675.499815,555.000000 649.519053,540.000000 649.519053,510.000000 675.499815,495.000000 701.480577,510.000000 " stroke="black" fill="white"/>
<polygon points="753.442101,540.000000 727.461339,555.000000 701.480577,540.000000 701.480577,510.000000 727.461339,495.000000 753.442101,510.000000 " stroke="black" fill="blue"/>
<polygon points="805.403626,540.000000 779.422863,555.000000 753.442101,540.000000 753.442101,510.000000 779.422863,495.000000 805.403626,510.000000 " stroke="black" fill="blue"/>
<polygon points="51.961524,585.000000 25.980762,600.000000 0.000000,585.000000 0.000000,555.000000 25.980762,540.000000 51.961524,555.000000 " stroke="black" fill="blue"/>
<polygon points="103.923048,585.000000 77.942286,600.000000 51.961524,585.000000 51.961524,555.000000 77.942286,540.000000 103.923048,555.000000 " stroke="black" fill="white"/>
<polygon points="155.884573,585.000000 129.903811,600.000000 103.923048,585.000000 103.923048,555.000000 129.903811,540.000000 155.884573,555.000000 " stroke="black" fill="blue"/>
<polygon points="207.846097,585.000000 181.865335,600.000000 155.884573,585.000000 155.884573,555.000000 181.865335,540.000000 207.846097,555.000000 " stroke="black" fill="blue"/>
<polygon points="259.807621,585.000000 233.826859,600.000000 207.846097,585.000000 207.846097,555.000000 233.826859,540.000000 259.807621,555.000000 " stroke="black" fill="white"/>
<polygon points="311.769145,585.000000 285.788383,600.000000 259.807621,585.000000 259.807621,555.000000 285.788383,540.000000 311.769145,555.000000 " stroke="black" fill="white"/>
<polygon points="363.730670,585.000000 337.749907,600.000000 311.769145,585.000000 311.769145,555.000000 337.749907,540.000000 363.730670,555.000000 " stroke="black" fill="white"/>
<polygon points="415.692194,585.000000 389.711432,600.000000 363.730670,585.000000 363.730670,555.000000 389.711432,540.000000 415.692194,555.000000 " stroke="black" fill="blue"/>
<polygon points="467.653718,585.000000 441.672956,600.000000 415.692194,585.000000 415.692194,555.000000 441.672956,540.000000 467.653718,555.000000 " stroke="black" fill="white"/>
<polygon points="519.615242,585.000000 493.634480,600.000000 467.653718,585.000000 467.653718,555.000000 493.634480,540.000000 519.615242,555.000000 " stroke="black" fill="blue"/>
<polygon points="571.576766,585.000000 545.596004,600.000000 519.615242,585.000000 519.615242,555.000000 545.596004,540.000000 571.576766,555.000000 " stroke="black" fill="white"/>
<polygon points="623.538291,585.000000 597.557529,600.000000 571.576766,585.000000 571.576766,555.000000 597.557529,540.000000 623.538291,555.000000 " stroke="black" fill="blue"/>
<polygon points="675.499815,585.000000 649.519053,600.000000 623.538291,585.000000 623.538291,555.000000 649.519053,540.000000 675.499815,555.000000 " stroke="black" fill="blue"/>
<polygon points="727.461339,585.000000 701.480577,600.000000 675.499815,585.000000 675.499815,555.000000 701.480577,540.000000 727.461339,555.000000 " stroke="black" fill="white"/>
<polygon points="779.422863,585.000000 753.442101,600.000000 727.461339,585.000000 727.461339,555.000000 753.442101,540.000000 779.422863,555.000000 " stroke="black" fill="blue"/>
<polygon points="77.942286,630.000000 51.961524,645.000000 25.980762,630.000000 25.980762,600.000000 51.961524,585.000000 77.942286,600.000000 " stroke="black" fill="blue"/>
<polygon points="129.903811,630.000000 103.923048,645.000000 77.942286,630.000000 77.942286,600.000000 103.923048,585.000000 129.903811,600.000000 " stroke="black" fill="white"/>
<polygon points="181.865335,630.000000 155.884573,645.000000 129.903811,630.000000 129.903811,600.000000 155.884573,585.000000 181.865335,600.000000 " stroke="black" fill="white"/>
<polygon points="233.826859,630.000000 207.846097,645.000000 181.865335,630.000000 181.865335,600.000000 207.846097,585.000000 233.826859,600.000000 " stroke="black" fill="white"/>
<polygon points="285.788383,630.000000 259.807621,645.000000 233.826859,630.000000 233.826859,600.000000 259.807621,585.000000 285.788383,600.000000 " stroke="black" fill="blue"/>
<polygon points="337.749907,630.000000 311.769145,645.000000 285.788383,630.000000 285.788383,600.000000 311.769145,585.000000 337.749907,600.000000 " stroke="black" fill="blue"/>
<polygon points="389.711432,630.000000 363.730670,645.000000 337.749907,630.000000 337.749907,600.000000 363.730670,585.000000 389.711432,600.000000 " stroke="black" fill="white"/>
<polygon points="441.672956,630.000000 415.692194,645.000000 389.711432,630.000000 389.711432,600.000000 415.692194,585.000000 441.672956,600.000000 " stroke="black" fill="white"/>
<polygon points="493.634480,630.000000 467.653718,645.000000 441.672956,630.000000 441.672956,600.000000 467.653718,585.000000 493.634480,600.000000 " stroke="black" fill="blue"/>
<polygon points="545.596004,630.000000 519.615242,645.000000 493.634480,630.000000 493.634480,600.000000 519.615242,585.000000 545.596004,600.000000 " stroke="black" fill="blue"/>
<polygon points="597.557529,630.000000 571.576766,645.000000 545.596004,630.000000 545.596004,600.000000 571.576766,585.000000 597.557529,600.000000 " stroke="black" fill="white"/>
<polygon points="649.519053,630.000000 623.538291,645.000000 597.557529,630.000000 597.557529,600.000000 623.538291,585.000000 649.519053,600.000000 " stroke="black" fill="white"/>
<polygon points="701.480577,630.000000 675.499815,645.000000 649.519053,630.000000 649.519053,600.000000 675.499815,585.000000 701.480577,600.000000 " stroke="black" fill="white"/>
<polygon points="753.442101,630.000000 727.461339,645.000000 701.480577,630.000000 701.480577,600.000000 727.461339,585.000000 753.442101,600.000000 " stroke="black" fill="blue"/>
<polygon points="805.403626,630.000000 779.422863,645.000000 753.442101,630.000000 753.442101,600.000000 779.422863,585.000000 805.403626,600.000000 " stroke="black" fill="blue"/>
<polygon points="51.961524,675.000000 25.980762,690.000000 0.000000,675.000000 0.000000,645.000000 25.980762,630.000000 51.961524,645.000000 " stroke="black" fill="blue"/>
<polygon points="103.923048,675.000000 77.942286,690.000000 51.961524,675.000000 51.961524,645.000000 77.942286,630.000000 103.923048,645.000000 " stroke="black" fill="blue"/>
<polygon points="155.884573,675.000000 129.903811,690.000000 103.923048,675.000000 103.923048,645.000000 129.903811,630.000000 155.884573,645.000000 " stroke="black" fill="blue"/>
<polygon points="207.846097,675.000000 181.865335,690.000000 155.884573,675.000000 155.884573,645.000000 181.865335,630.000000 207.846097,645.000000 " stroke="black" fill="blue"/>
<polygon points="259.807621,675.000000 233.826859,690.000000 207.846097,675.000000 207.846097,645.000000 233.826859,630.000000 259.807621,645.000000 " stroke="black" fill="blue"/>
<polygon points="311.769145,675.000000 285.788383,690.000000 259.807621,675.000000 259.807621,645.000000 285.788383,630.000000 311.769145,645.000000 " stroke="black" fill="blue"/>
<polygon points="363.730670,675.000000 337.749907,690.000000 311.769145,675.000000 311.769145,645.000000 337.749907,630.000000 363.730670,645.000000 " stroke="black" fill="blue"/>
<polygon points="415.692194,675.000000 389.711432,690.000000 363.730670,675.000000 363.730670,645.000000 389.711432,630.000000 415.692194,645.000000 " stroke="black" fill="blue"/>
<polygon points="467.653718,675.000000 441.672956,690.000000 415.692194,675.000000 415.692194,645.000000 441.672956,630.000000 467.653718,645.000000 " stroke="black" fill="blue"/>
<polygon points="519.615242,675.000000 493.634480,690.000000 467.653718,675.000000 467.653718,645.000000 493.634480,630.000000 519.615242,645.000000 " stroke="black" fill="blue"/>
<polygon points="571.576766,675.000000 545.596004,690.000000 519.615242,675.000000 519.615242,645.000000 545.596004,630.000000 571.576766,645.000000 " stroke="black" fill="blue"/>
<polygon points="623.538291,675.000000 597.557529,690.000000 571.576766,675.000000 571.576766,645.000000 597.557529,630.000000 623.538291,645.000000 " stroke="black" fill="blue"/>
<polygon points="675.499815,675.000000 649.519053,690.000000 623.538291,675.000000 623.538291,645.000000 649.519053,630.000000 675.499815,645.000000 " stroke="black" fill="blue"/>
<polygon points="727.461339,675.000000 701.480577,690.000000 675.499815,675.000000 675.499815,645.000000 701.480577,630.000000 727.461339,645.000000 " stroke="black" fill="blue"/>
<polygon points="779.422863,675.000000 753.442101,690.000000 727.461339,675.000000 727.461339,645.000000 753.442101,630.000000 779.422863,645.000000 " stroke="black" fill="blue"/>
</svg>
